<svg t="1709372675980" class="icon" viewBox="0 0 1024 1024" version="1.1" xmlns="http://www.w3.org/2000/svg" p-id="8429" width="200" height="200"><path d="M32.398689 650.894689l-1.225443 66.375344L513.007213 995.462295 991.601311 717.303607l1.208656-66.375345L510.992787 372.752787z" fill="#7C859C" p-id="8430"></path><path d="M505.033443 369.361836L32.314754 644.079213l-5.774688 3.357377-0.117509 6.697967-1.107934 59.509509L25.180328 720.660984l6.043279 3.491672 475.824262 274.717377 5.942557 3.441311 5.959344-3.441311 472.718689-274.734164 5.791475-3.357377 0.134296-6.697967 1.091147-59.526295 0.134295-7.000132-6.060065-3.508459-475.807476-274.70059-5.959344-3.441311-5.959344 3.458098zM37.182951 713.879082l1.107934-59.543082 472.718689-274.717377L986.817049 654.352787l-1.107934 59.543082L513.007213 988.579672 37.166164 713.879082z" fill="#7C859C" p-id="8431"></path><path d="M986.817049 654.336l-1.107934 59.543082-472.718689 274.717377 1.107935-59.543082z" fill="#C6CFE0" p-id="8432"></path><path d="M514.098361 929.053377l-1.107935 59.543082L37.166164 713.879082l1.107934-59.543082z" fill="#F2F4F7" p-id="8433"></path><path d="M829.490361 458.802361L535.165902 631.489049v104.649443l294.139803-173.844984z" fill="#C6CFE0" p-id="8434"></path><path d="M514.182295 278.528L221.368656 448.545574l313.797246 182.473442 294.358032-172.199868z" fill="#F2F4F7" p-id="8435"></path><path d="M196.490492 433.034492L551.617049 640.100721v128.721836L196.490492 561.95777V433.101639z" fill="#DFE2EA" p-id="8436"></path><path d="M566.221639 632.194098l-14.587803 7.906623V768.839344l14.60459-9.249574z" fill="#C6CFE0" p-id="8437"></path><path d="M566.221639 632.194098L210.222164 425.967213l-13.731672 7.100853L551.617049 639.580328z" fill="#F4F6F9" p-id="8438"></path><path d="M476.008918 628.769574l-4.498885-2.585181 0.117508 73.022951 4.448525 2.551607-0.067148-72.989377z m-31.559344-18.364853l0.067147 73.022951 4.482099 2.601967-0.033574-72.989377-4.498885-2.635541z m-27.043672-15.712524l0.033573 72.989377 4.498886 2.58518-0.100722-72.989377-4.431737-2.58518z m-22.645509-13.194492l-4.482098-2.58518 0.117508 73.006164 4.431738 2.568393-0.067148-72.989377z m-31.52577-18.348066l0.033574 72.989377 4.498885 2.568394-0.050361-73.006164-4.482098-2.551607z m-27.077246-15.779672l0.067148 72.989377 4.498885 2.568394-0.117508-72.989377-4.448525-2.568394z m-22.611934-13.160918l-4.482099-2.618754 0.100722 73.006164 4.431737 2.618754-0.05036-73.006164z m-31.559345-18.348065l0.067148 72.955803 4.482098 2.618754-0.05036-72.989377-4.498886-2.58518z m-27.060459-15.779673l0.067148 73.022951 4.482098 2.551607-0.05036-72.989377-4.498886-2.585181z" fill="#A1AAC2" p-id="8439"></path><path d="M208.560262 547.789639l7.65482 5.355017V484.805246l-7.65482-5.60682z" fill="#F2F4F7" p-id="8440"></path><path d="M236.157902 476.411803l-19.18741 9.618886v67.113967l19.18741-10.323935z" fill="#C6CFE0" p-id="8441"></path><path d="M235.352131 475.169574l-8.057705-5.355017-18.734164 9.367082 7.65482 5.355017z" fill="#F4F6F9" p-id="8442"></path><path d="M497.831869 720.593836l7.638033 5.33823v-68.33941l-7.638033-5.623607z" fill="#F2F4F7" p-id="8443"></path><path d="M525.429508 648.980984l-19.204197 9.618885v67.31541l19.18741-10.307148z" fill="#C6CFE0" p-id="8444"></path><path d="M524.623738 647.906623l-8.074492-5.33823-18.784525 9.232787 7.65482 5.355017z" fill="#F4F6F9" p-id="8445"></path><path d="M604.69718 434.897836l14.302427-8.309508-43.343738-25.029246-14.302426 8.326295zM532.580721 426.588328l43.343738 25.012459 14.386361-8.343082-43.360525-25.012459z" fill="#ABB2C1" p-id="8446"></path><path d="M568.873967 472.500459l-32.835147-18.96918a7.268721 7.268721 0 0 0-6.546886-0.033574l-11.079344 6.446164-28.873442-16.686164 11.079344-6.41259c1.77941-1.057574 1.712262-2.753049-0.117508-3.810623l-3.944918-2.283017 78.999082-45.912131 72.301114 41.748984-78.982295 45.912131z m-101.174557-58.418361l64.595934-37.552262 14.487082 8.359869-64.629508 37.552262-14.453508-8.359869z m205.689705 10.575738l-94.594099-54.607738a7.251934 7.251934 0 0 0-6.580459 0.050361l-11.04577 6.429377-25.633574-14.772459a7.302295 7.302295 0 0 0-6.647606 0l-75.675279 43.981639-11.146492-6.446164a7.201574 7.201574 0 0 0-6.563672-0.05036l-58.049049 33.741639c-1.812984 1.057574-1.812984 2.80341 0 3.860984l152.424918 87.963278c1.812984 1.074361 4.767475 1.024 6.580459-0.016786l58.049049-33.74164c1.812984-1.040787 1.796197-2.719475-0.016787-3.760262l-11.146492-6.429377 90.06164-52.341508c1.796197-1.040787 1.796197-2.786623-0.016787-3.860984z" fill="#ABB2C1" p-id="8447"></path></svg>