<svg fill="currentColor" xmlns="http://www.w3.org/2000/svg" viewBox="0 0 23 21">
  <path fill-rule="evenodd" clip-rule="evenodd"
    d="M18.0335 20.0229L22.6202 11.7059C22.9336 11.1368 22.9336 10.4468 22.6202 9.87772L18.0335 1.56065C17.7083 0.967363 17.086 0.598006 16.4095 0.59668H7.30096C6.6244 0.598006 6.00216 0.967363 5.67699 1.56065L1.09026 9.87772C0.776878 10.4468 0.776878 11.1368 1.09026 11.7059L5.67699 20.0229C6.00216 20.6162 6.6244 20.9856 7.30096 20.9869H16.4095C17.086 20.9856 17.7083 20.6162 18.0335 20.0229ZM21.2119 10.6614C21.2566 10.7427 21.2566 10.8412 21.2119 10.9224L16.6332 19.2395C16.5869 19.3242 16.4982 19.3769 16.4017 19.3771H7.30874C7.21224 19.3769 7.1235 19.3242 7.07721 19.2395L2.49853 10.9224C2.45385 10.8412 2.45385 10.7427 2.49853 10.6614L7.07721 2.34434C7.12343 2.25955 7.21218 2.2067 7.30874 2.20643H16.4017C16.4983 2.2067 16.587 2.25955 16.6332 2.34434L21.2119 10.6614ZM11.786 14.9809C9.41511 14.9809 7.49333 13.0591 7.49333 10.6882C7.49333 8.31733 9.4151 6.39555 11.786 6.39555C14.1566 6.39555 16.0787 8.31733 16.0787 10.6882C16.0787 13.0591 14.1566 14.9809 11.786 14.9809ZM14.4689 10.6882C14.4689 12.17 13.2678 13.3712 11.786 13.3712C10.3042 13.3712 9.10308 12.17 9.10308 10.6882C9.10308 9.20645 10.3042 8.0053 11.786 8.0053C13.2678 8.0053 14.4689 9.20645 14.4689 10.6882Z"
    fill="currentColor" />
</svg>
