<svg xmlns="http://www.w3.org/2000/svg" fill="none" viewBox="0 0 68 56" class="design-iconfont">
  <defs>
    <linearGradient x1=".5" y1="0" x2=".5" y2="1" id="3g02iyshv__5ny12aby5c">
      <stop offset="0%" stop-color="#D5E5FF"/>
      <stop offset="100%" stop-color="#ECF3FF"/>
    </linearGradient>
    <linearGradient x1=".5" y1="0" x2=".5" y2="1" id="3g02iyshv__8f2kw7xgjd">
      <stop offset="0%" stop-color="#D5E5FF"/>
      <stop offset="100%" stop-color="#ECF3FF"/>
    </linearGradient>
    <clipPath id="3g02iyshv__hmi39b6smb">
      <rect x="10" y="4" width="48" height="48" rx="0"/>
    </clipPath>
    <mask id="3g02iyshv__ku26jzoh2a" style="mask-type:alpha" maskUnits="userSpaceOnUse">
      <rect width="68" height="56" rx="0" fill="#FFF"/>
    </mask>
  </defs>
  <g clip-path="url(#3g02iyshv__hmi39b6smb)" mask="url(#3g02iyshv__ku26jzoh2a)">
    <path d="M38.2914621887207,40.5247859954834L29.708282188720702,40.5247859954834Q29.6279311887207,45.519115995483396,28.985462188720703,47.3433959954834L39.0143621887207,47.3433959954834Q38.3718121887207,45.519115995483396,38.2914621887207,40.5247859954834Z" fill="#C5D3DD"/>
    <path d="M12,35.08039847106934L12,12.508228471069335C12,11.282151471069335,13.004950000000001,10.288198471069336,14.2446,10.288198471069336L53.7552,10.288198471069336C54.9949,10.288198471069336,55.9998,11.282151471069335,55.9998,12.508228471069335L55.9998,35.08029847106934L12,35.08029847106934L12,35.08039847106934Z" fill="#596C76"/>
    <path d="M12,36.080098471069334L12,12.508228471069335C12,11.282151471069335,13.004950000000001,10.288198471069336,14.2446,10.288198471069336L53.7552,10.288198471069336C54.9949,10.288198471069336,55.9998,11.282151471069335,55.9998,12.508228471069335L55.9998,36.080098471069334L12,36.080098471069334Z" fill="url(#3g02iyshv__5ny12aby5c)"/>
    <path d="M53.228384375,36.08012466993332L14.771484375,36.08012466993332L14.771484375,14.27505766993332C14.771484375,13.73889766993332,15.210968375,13.304224669933319,15.753062375,13.304224669933319L52.246884375,13.304224669933319C52.788984375,13.304224669933319,53.228384375,13.73889766993332,53.228384375,14.27505766993332L53.228384375,36.08012466993332L53.228384375,36.08012466993332Z" fill="url(#3g02iyshv__8f2kw7xgjd)"/>
    <path d="M53.7552,40.72334237426758L14.2446,40.72334237426758C13.004950000000001,40.72334237426758,12,39.72938237426758,12,38.50331237426758L12,35.08040237426758L55.9998,35.08040237426758L55.9998,38.50331237426758C55.9998,39.72938237426758,54.9949,40.72334237426758,53.7552,40.72334237426758Z" fill="#D9E7EC"/>
    <path d="M35.51301273376465,38.558467868041994L32.48681073376465,38.558467868041994C32.12020073376465,38.558467868041994,31.82294273376465,38.26446786804199,31.82294273376465,37.901868868041994C31.82294273376465,37.53927286804199,32.12020073376465,37.24526786804199,32.48681073376465,37.24526786804199L35.51301273376465,37.24526786804199C35.87962273376465,37.24526786804199,36.17688273376465,37.53927286804199,36.17688273376465,37.901868868041994C36.17679273376465,38.26446786804199,35.87962273376465,38.558467868041994,35.51301273376465,38.558467868041994Z" fill="#B6C4CF"/>
    <path d="M41.818567362976076,48.00000000305176L26.181235362976075,48.00000000305176C25.814625362976074,48.00000000305176,25.517367362976074,47.706000003051756,25.517367362976074,47.34340100305176C25.517367362976074,46.980805003051756,25.814625362976074,46.68680000305176,26.181235362976075,46.68680000305176L41.818567362976076,46.68680000305176C42.185167362976074,46.68680000305176,42.482467362976074,46.980805003051756,42.482467362976074,47.34340100305176C42.482467362976074,47.706000003051756,42.185167362976074,48.00000000305176,41.818567362976076,48.00000000305176Z" fill="#B6C4CF"/>
    <g>
      <path d="M49.14095797271729,35.07995668740273L18.858757972717285,35.07995668740273L18.858757972717285,8.912612687402724C18.858757972717285,8.408751687402725,19.271773972717284,8.000256687402725,19.781210972717286,8.000256687402725L48.218557972717285,8.000256687402725C48.727957972717284,8.000256687402725,49.14095797271729,8.408751687402725,49.14095797271729,8.912612687402724L49.14095797271729,35.07995668740273Z" fill="#FFF"/>
    </g>
    <g>
      <path d="M49.14095797271729,12.434287343053818L18.858757972717285,12.434287343053818L18.858757972717285,8.912613343053817C18.858757972717285,8.408752343053818,19.271773972717284,8.000257343053818,19.781210972717286,8.000257343053818L48.218557972717285,8.000257343053818C48.727957972717284,8.000257343053818,49.14095797271729,8.408752343053818,49.14095797271729,8.912613343053817L49.14095797271729,12.434287343053818Z" fill="#69ADFE"/>
    </g>
    <g>
      <path fill="#69ADFE" d="M33.99991322 15.937254430000001A7.90642166 7.81987429 0 1 0 33.99991322 31.57700301A7.90642166 7.81987429 0 1 0 33.99991322 15.937254430000001Z"/>
      <path d="M40.056871998405455,22.835595620422364C39.773541998405456,22.622675620422363,39.369121998405454,22.67715562042236,39.15376199840546,22.957475620422365L39.07624199840546,23.058375620422364C38.77993199840546,20.468175620422365,36.552081998405455,18.448315620422363,33.85519199840546,18.448315620422363C32.474871998405455,18.448315620422363,31.170941998405457,18.973510620422363,30.183514998405457,19.927085620422364C29.928796098405456,20.173065620422364,29.923983598405457,20.576715620422362,30.172685998405456,20.828565620422363C30.421388998405458,21.080415620422364,30.829506998405456,21.085085620422362,31.084141998405457,20.839275620422363C31.829301998405455,20.119525620422362,32.81346199840546,19.723185620422363,33.85519199840546,19.723185620422363C35.90334199840546,19.723185620422363,37.59373199840546,21.266465620422363,37.80032199840546,23.239075620422362L37.58385199840546,22.957395620422364C37.36849199840546,22.677165620422365,36.964151998405455,22.622675620422363,36.680731998405456,22.835515620422363C36.397311998405456,23.04859562042236,36.342221998405456,23.448505620422363,36.55758199840545,23.728825620422363L37.855671998405455,25.418225620422362C37.97753199840545,25.576825620422362,38.167361998405454,25.669985620422363,38.36880199840546,25.669985620422363C38.57024199840546,25.669985620422363,38.76007199840546,25.576825620422362,38.881931998405456,25.418225620422362L40.18007199840545,23.728825620422363C40.39537199840546,23.448595620422363,40.340271998405456,23.04868562042236,40.056871998405455,22.835595620422364Z" fill="#FFF"/>
      <path d="M36.91559824199676,26.674809882278442C36.17043824199676,27.394649882278443,35.18636824199677,27.790989882278442,34.144548241996766,27.790989882278442C32.09648824199677,27.790989882278442,30.406098241996766,26.247619882278443,30.199418241996764,24.275099882278443L30.415888241996765,24.55677988227844C30.542738241996766,24.72175988227844,30.734978241996764,24.808539882278442,30.929538241996767,24.808539882278442C31.065498241996764,24.808539882278442,31.202478241996765,24.766209882278442,31.319098241996766,24.678659882278442C31.602518241996766,24.46557988227844,31.657598241996766,24.065669882278442,31.442248241996765,23.785349882278442L30.144158241996767,22.09595088227844C30.022298241996765,21.937347082278443,29.832458241996765,21.844189882278442,29.631028241996766,21.844189882278442C29.429588241996765,21.844189882278442,29.239748241996764,21.93734578227844,29.117898241996766,22.09595088227844L27.819808241996764,23.785349882278442C27.604448641996765,24.065669882278442,27.659533841996765,24.46557988227844,27.942956241996765,24.678659882278442C28.226292241996767,24.891579882278442,28.630714241996767,24.837099882278444,28.846078241996764,24.55677988227844L28.923588241996764,24.45588988227844C29.219988241996766,27.04615988227844,31.447748241996766,29.065939882278442,34.144548241996766,29.065939882278442C35.52487824199677,29.065939882278442,36.82880824199677,28.54065988227844,37.816198241996766,27.58707988227844C38.070898241996765,27.34101988227844,38.075798241996765,26.937449882278443,37.82699824199676,26.68560988227844C37.57826824199677,26.433509882278443,37.17023824199676,26.428829882278443,36.91559824199676,26.674809882278442Z" fill="#FFF"/>
    </g>
  </g>
</svg>
